<?xml version="1.0" standalone="no"?>
<!DOCTYPE svg PUBLIC "-//W3C//DTD SVG 20010904//EN"
 "http://www.w3.org/TR/2001/REC-SVG-20010904/DTD/svg10.dtd">
<svg version="1.0" xmlns="http://www.w3.org/2000/svg"
 width="16.000000pt" height="16.000000pt" viewBox="0 0 16.000000 16.000000"
 preserveAspectRatio="xMidYMid meet">
<metadata>
Created by potrace 1.11, written by Peter Selinger 2001-2013
</metadata>
<g transform="translate(0.000000,16.000000) scale(0.004000,-0.004000)"
fill="#000000" stroke="none">
<path d="M280 3981 c-111 -36 -190 -107 -244 -220 l-31 -66 0 -1696 0 -1695
37 -76 c45 -91 103 -147 196 -191 l67 -32 1695 0 1695 0 66 31 c78 37 136 87
177 152 66 103 62 -14 62 1812 0 1493 -2 1662 -16 1711 -40 134 -140 234 -273
273 -49 14 -223 16 -1715 15 -1560 0 -1664 -1 -1716 -18z m2206 -652 c18 -11
42 -39 54 -63 21 -44 21 -47 18 -857 -4 -913 1 -856 -80 -1019 -54 -108 -187
-247 -291 -305 -312 -172 -694 -101 -920 172 -102 124 -167 296 -167 443 0 84
17 122 72 163 38 28 116 34 162 12 61 -29 87 -73 97 -165 16 -143 74 -248 172
-313 80 -53 141 -70 244 -66 75 3 98 9 154 36 119 59 200 172 220 306 5 34 9
401 9 815 0 625 2 758 14 780 44 85 158 113 242 61z"/>
</g>
</svg>
